# xmcd
#
# Track frame offsets: 
#        150
#        22442
#        42867
#        66664
#        81177
#        98700
#        119826
#        140332
#        173614
#        201967
#        221422
#        241405
#
# Disc length: 3647 seconds
#
# Revision: 0
# Processed by: cddbd v1.5.2PL0 Copyright (c) Steve Scherf et al.
# Submitted via: ExactAudioCopy v0.99pb1
#
DISCID=b50e3d0c
DTITLE=Big Bill and The Cool Tones - Rainy Day Blues
DYEAR=1996
DGENRE=Blues
TTITLE0=A Real Good Woman
TTITLE1=Pool Fool
TTITLE2=BMW Blues
TTITLE3=What Went Wrong
TTITLE4=Fantasy Lady
TTITLE5=Don't Shed A Tear
TTITLE6=The Boulevard
TTITLE7=Rainy Day Blues
TTITLE8=The Money
TTITLE9=The Mood For Love
TTITLE10=I Know You're Waiting
TTITLE11=WHA Groove
EXTD=
EXTT0=
EXTT1=
EXTT2=
EXTT3=
EXTT4=
EXTT5=
EXTT6=
EXTT7=
EXTT8=
EXTT9=
EXTT10=
EXTT11=
PLAYORDER=
